<svg width="64" height="64" viewBox="0 0 64 64" fill="none" xmlns="http://www.w3.org/2000/svg">
<circle cx="32" cy="32" r="32" fill="#39D3C6"/>
<g clip-path="url(#clip0)">
<path d="M34.8 23.6L21.0333 37.4833C20.9167 37.6 20.8 37.8333 20.6833 38.0667L19.1667 44.1333C19.1667 44.3666 19.1667 44.4833 19.2833 44.7167C19.4 44.8333 19.5167 44.8333 19.75 44.8333H19.8667L26.05 43.3167C26.2833 43.3167 26.4 43.2 26.6333 42.9667L40.4 29.0833C40.5167 28.9667 40.5167 28.85 40.4 28.7333L35.2667 23.6C35.15 23.4833 34.9167 23.4833 34.8 23.6Z" fill="white"/>
<path d="M44.0167 21.5L42.5 19.9833C41.45 18.9333 39.7 18.9333 38.5333 19.9833L36.7833 21.7333C36.6667 21.85 36.6667 21.9667 36.7833 22.0833L41.9167 27.2167C42.0333 27.3333 42.15 27.3333 42.2667 27.2167L44.0167 25.4667C44.6 25 44.8333 24.3 44.8333 23.4833C44.8333 22.6667 44.6 22.0833 44.0167 21.5Z" fill="white"/>
</g>
<defs>
<clipPath id="clip0">
<rect width="28" height="28" fill="white" transform="translate(18 18)"/>
</clipPath>
</defs>
</svg>
