<svg width="44" height="44" viewBox="0 0 44 44" fill="none" xmlns="http://www.w3.org/2000/svg">
<path d="M35.2195 10.9921H37.762V12.4253C37.762 13.4029 38.5614 14.2028 39.5385 14.2028C40.5155 14.2028 41.3149 13.4029 41.3149 12.4253V9.38128C41.3149 8.31478 40.4489 7.43713 39.3719 7.43713H35.2195C34.2425 7.43713 33.4431 8.23701 33.4431 9.21464C33.4431 10.1923 34.2314 10.9921 35.2195 10.9921Z" fill="#39D3C6"/>
<path d="M40.3378 31.3779H27.1589C26.6704 31.3779 26.2041 31.5557 25.8377 31.8778L19.2205 37.7325L19.2649 33.3998C19.2649 32.8666 19.065 32.3556 18.6875 31.9778C18.31 31.6001 17.7993 31.389 17.2664 31.389H12.1147V10.9922H21.7297C21.7297 10.9922 22.0073 10.9922 22.0628 10.9922H28.1471V12.4253C28.1471 13.4029 28.9465 14.2028 29.9235 14.2028C30.9005 14.2028 31.6999 13.4029 31.6999 12.4253V9.38132C31.6999 8.31482 30.8339 7.43717 29.757 7.43717H22.0517C21.9962 7.43717 21.9062 7.43717 21.9062 7.43717C21.9062 7.43717 21.7741 7.43717 21.7186 7.43717H12.1147V3.34891C12.1147 2.37129 11.3153 1.57141 10.3383 1.57141C9.36126 1.57141 8.56186 2.37129 8.56186 3.34891V7.43717H3.97644C2.9994 7.43717 2.2 8.23705 2.2 9.21468C2.2 10.1923 2.9994 10.9922 3.97644 10.9922H8.56186V32.0556C8.56186 33.6442 9.84977 34.9329 11.4375 34.9329H15.6787L15.6343 40.3432C15.6232 41.2764 16.1672 42.1318 17.0221 42.5206C17.333 42.6651 17.6772 42.7317 18.0103 42.7317C18.5765 42.7317 19.1428 42.5318 19.5869 42.1318L27.7585 34.9107H40.3489C41.326 34.9107 42.1254 34.1108 42.1254 33.1332C42.1254 32.1556 41.326 31.3779 40.3378 31.3779Z" fill="#39D3C6"/>
<path d="M39.594 16.6469H27.1034C26.1264 16.6469 25.327 17.4467 25.327 18.4244C25.327 19.402 26.1264 20.2019 27.1034 20.2019H33.8761L26.4483 24.79C25.7267 25.2011 25.3381 26.0343 25.5046 26.8675C25.6934 27.7562 26.4817 28.4117 27.3921 28.4117H40.3379C41.3149 28.4117 42.1143 27.6118 42.1143 26.6342C42.1143 25.6566 41.3149 24.8567 40.3379 24.8567H33.11L40.5377 20.2685C41.2594 19.8575 41.648 19.0243 41.4814 18.1911C41.3038 17.2912 40.5044 16.6469 39.594 16.6469Z" fill="#39D3C6"/>
</svg>
