<svg width="136" height="136" viewBox="0 0 136 136" fill="none" xmlns="http://www.w3.org/2000/svg">
<g clip-path="url(#clip0)">
<path d="M108.751 34.4451H116.611V38.8737C116.611 41.8947 119.083 44.3664 122.103 44.3664C125.124 44.3664 127.595 41.8947 127.595 38.8737V29.4673C127.595 26.1716 124.918 23.4595 121.588 23.4595H108.751C105.73 23.4595 103.259 25.9313 103.259 28.9523C103.259 31.9733 105.696 34.4451 108.751 34.4451Z" fill="white"/>
<path d="M68.075 23.4595H91.8969C95.1921 23.4595 97.9038 26.1373 97.9038 29.4673V38.8736C97.9038 41.8947 95.4324 44.3664 92.4117 44.3664C89.3911 44.3664 86.9197 41.8947 86.9197 38.8736V34.4451H68.1093H67.0452H37.3194V97.4405H53.2121C54.8597 97.4405 56.4387 98.0928 57.6057 99.26C58.7728 100.427 59.425 102.006 59.3906 103.654L59.2533 117.043L79.7113 98.951C80.8441 97.9554 82.2857 97.4062 83.796 97.4062H124.54C127.561 97.4062 130.032 99.8779 130.032 102.899C130.032 105.92 127.561 108.392 124.54 108.392H85.6496L60.3861 130.706C59.0131 131.908 57.2968 132.56 55.5119 132.56C54.4821 132.56 53.4523 132.354 52.4569 131.908C49.8138 130.706 48.1319 128.063 48.1662 125.179L48.3378 108.426H35.2255C30.317 108.426 26.3352 104.444 26.3352 99.5346V34.4451H12.1588C9.13818 34.4451 6.66675 31.9733 6.66675 28.9523C6.66675 25.9313 9.13818 23.4595 12.1588 23.4595H26.3352V10.8261C26.3352 7.80508 28.8067 5.33333 31.8273 5.33333C34.8479 5.33333 37.3194 7.80508 37.3194 10.8261V23.4595H67.0452H68.075Z" fill="white"/>
<path d="M122.275 51.919H83.6588C80.6382 51.919 78.1667 54.3908 78.1667 57.4118C78.1667 60.4328 80.6382 62.9046 83.6588 62.9046H104.597L81.6336 77.0829C79.4025 78.3531 78.2011 80.9278 78.716 83.5026C79.2995 86.2489 81.7366 88.2744 84.5513 88.2744H124.575C127.595 88.2744 130.067 85.8027 130.067 82.7816C130.067 79.7606 127.595 77.2888 124.575 77.2888H102.229L125.193 63.1106C127.424 61.8404 128.625 59.2656 128.11 56.6909C127.561 53.9102 125.09 51.919 122.275 51.919Z" fill="white"/>
</g>
<defs>
<clipPath id="clip0">
<rect width="123.4" height="127.227" fill="white" transform="translate(6.66675 5.33333)"/>
</clipPath>
</defs>
</svg>
