<svg width="136" height="136" viewBox="0 0 136 136" fill="none" xmlns="http://www.w3.org/2000/svg">
<path d="M67.9999 131.467C103.052 131.467 131.467 103.052 131.467 68C131.467 32.9483 103.052 4.53333 67.9999 4.53333C32.9482 4.53333 4.5332 32.9483 4.5332 68C4.5332 103.052 32.9482 131.467 67.9999 131.467Z" fill="#DFF8F6" stroke="#EDEDED" stroke-width="1.4"/>
<path d="M99.5582 96.1581C99.8765 95.4801 100.301 94.8575 100.816 94.3137C101.988 92.8595 103.053 91.3228 104.003 89.7155C107.844 83.1233 109.843 75.6202 109.792 67.9909C109.789 58.6939 106.687 49.6631 100.976 42.3272C95.2648 34.9913 87.2705 29.7692 78.2579 27.4872C69.2454 25.2052 59.7292 25.9935 51.215 29.7275C42.7008 33.4614 35.6747 39.9278 31.2485 48.1035C26.8222 56.2792 25.2484 65.6974 26.7762 74.868C28.3039 84.0386 32.846 92.438 39.6837 98.7372C46.5213 105.036 55.2642 108.876 64.5291 109.648C73.794 110.42 83.0518 108.081 90.8378 103C91.0242 102.876 91.2518 102.831 91.4714 102.874C91.691 102.917 91.8848 103.045 92.0107 103.23L92.3762 103.782C92.3762 103.782 95.827 108.839 103.663 109.783C103.931 109.824 104.203 109.758 104.422 109.599C104.64 109.439 104.786 109.2 104.828 108.933C104.853 108.781 104.843 108.626 104.799 108.478C104.754 108.331 104.677 108.196 104.573 108.083C102.134 105.297 100.423 101.951 99.5922 98.3424C99.3812 97.6312 99.3695 96.8756 99.5582 96.1581Z" fill="white" stroke="#39D3C6" stroke-width="2"/>
<path d="M41.9661 55.5148C42.3727 55.517 42.7618 55.6801 43.0485 55.9684C43.3351 56.2566 43.496 56.6467 43.496 57.0532V60.8269C43.496 61.2335 43.3351 61.6235 43.0485 61.9118C42.7618 62.2 42.3727 62.3631 41.9661 62.3653C41.5581 62.3653 41.1668 62.2033 40.8783 61.9147C40.5898 61.6262 40.4277 61.2349 40.4277 60.8269V57.0532C40.4277 56.6452 40.5898 56.2539 40.8783 55.9654C41.1668 55.6769 41.5581 55.5148 41.9661 55.5148Z" fill="#39D3C6"/>
<path d="M55.9905 55.5148C56.3971 55.517 56.7862 55.6801 57.0729 55.9684C57.3595 56.2566 57.5205 56.6467 57.5204 57.0532V60.8269C57.5205 61.2335 57.3595 61.6235 57.0729 61.9118C56.7862 62.2 56.3971 62.3631 55.9905 62.3653C55.5825 62.3653 55.1912 62.2033 54.9027 61.9147C54.6142 61.6262 54.4521 61.2349 54.4521 60.8269V57.0532C54.4521 56.6452 54.6142 56.2539 54.9027 55.9654C55.1912 55.6769 55.5825 55.5148 55.9905 55.5148Z" fill="#39D3C6"/>
<path d="M49.438 76.4065C49.0401 76.4061 48.6427 76.3805 48.248 76.33C48.0806 76.3076 47.9192 76.2526 47.7731 76.1679C47.627 76.0832 47.4989 75.9705 47.3963 75.8363C47.2937 75.7022 47.2186 75.5491 47.1751 75.3859C47.1317 75.2227 47.1208 75.0525 47.1431 74.8851C47.1654 74.7176 47.2205 74.5562 47.3052 74.4101C47.3899 74.264 47.5026 74.1359 47.6367 74.0333C47.7709 73.9307 47.924 73.8556 48.0872 73.8121C48.2504 73.7687 48.4206 73.7578 48.588 73.7801C49.9676 73.9692 51.371 73.6977 52.5805 73.0077C53.79 72.3177 54.7379 71.2477 55.2771 69.9639C55.3407 69.8087 55.4343 69.6676 55.5524 69.5486C55.6706 69.4297 55.811 69.3351 55.9657 69.2704C56.1204 69.2057 56.2863 69.172 56.454 69.1715C56.6217 69.1709 56.7878 69.2033 56.943 69.2669C57.0981 69.3305 57.2392 69.4241 57.3582 69.5423C57.4772 69.6604 57.5717 69.8008 57.6365 69.9555C57.7012 70.1102 57.7348 70.2761 57.7354 70.4438C57.736 70.6115 57.7035 70.7777 57.6399 70.9328C56.9656 72.5528 55.8269 73.9369 54.3674 74.911C52.9078 75.885 51.1927 76.4053 49.438 76.4065Z" fill="#39D3C6"/>
</svg>
