<svg width="314" height="42" viewBox="0 0 314 42" fill="none" xmlns="http://www.w3.org/2000/svg">
<rect x="1" y="1" width="312" height="40" rx="2" fill="white" stroke="#39D3C6" stroke-width="1.2"/>
<path d="M38.728 14.744V15.816H43.816C43.544 18.248 41.416 20.12 38.008 21.096L38.552 22.12C42.664 20.952 45.208 18.376 45.208 14.744H38.728ZM41.688 23.672H48.376V26.92H41.688V23.672ZM40.392 27.976H49.656V22.632H40.392V27.976ZM48.344 13.832V17.528H45.224V18.6H48.344V22.024H49.656V13.832H48.344ZM59.5008 20.632C57.6448 19.896 56.5888 18.232 56.5888 16.616V14.68H55.3248V16.616C55.3248 18.248 54.2048 20.136 52.3328 20.984L53.0368 21.992C54.4288 21.368 55.4528 20.152 55.9648 18.792C56.4768 20.024 57.4688 21.08 58.7968 21.624L59.5008 20.632ZM54.7808 24.36H63.1168V28.184H64.4288V23.304H54.7808V24.36ZM63.1648 13.848V17.576H61.3408V14.088H60.0928V22.424H61.3408V18.648H63.1648V22.52H64.4288V13.848H63.1648ZM70.6255 23.784C69.2495 23.784 68.2895 22.28 68.2895 19.944C68.2895 17.624 69.2495 16.12 70.6255 16.12C71.9855 16.12 72.9455 17.624 72.9455 19.944C72.9455 22.28 71.9855 23.784 70.6255 23.784ZM77.2975 13.832V19.304H74.1775C73.9695 16.616 72.5615 14.936 70.6255 14.936C68.5295 14.936 67.0415 16.888 67.0415 19.944C67.0415 23 68.5295 24.952 70.6255 24.952C72.6255 24.952 74.0495 23.192 74.1775 20.376H77.2975V28.216H78.6095V13.832H77.2975ZM91.3023 16.344H82.9183V19.416H92.8543V18.472H84.2143V17.24H92.5983V14.248H82.8863V15.176H91.3023V16.344ZM84.1343 25.72H92.6463V22.664H82.8063V23.608H91.3503V24.808H82.8383V27.992H93.0943V27.048H84.1343V25.72ZM81.2543 20.504V21.496H94.2623V20.504H81.2543ZM109.515 13.848V21.544H110.827V13.848H109.515ZM101.579 22.248V27.992H110.827V22.248H109.531V24.008H102.875V22.248H101.579ZM102.875 25.032H109.531V26.936H102.875V25.032ZM103.115 14.52C100.955 14.52 99.3871 15.864 99.3871 17.816C99.3871 19.8 100.955 21.128 103.115 21.128C105.291 21.128 106.875 19.8 106.875 17.816C106.875 15.864 105.291 14.52 103.115 14.52ZM103.115 15.608C104.571 15.608 105.595 16.52 105.595 17.816C105.595 19.128 104.571 20.04 103.115 20.04C101.691 20.04 100.667 19.128 100.667 17.816C100.667 16.52 101.691 15.608 103.115 15.608ZM121.104 20.6C119.44 20.872 118.064 20.936 115.408 20.936V18.76H120.272V14.696H114.08V15.768H118.992V17.752H114.128V22.008H115.152C118.016 22.008 119.472 21.96 121.232 21.656L121.104 20.6ZM115.728 24.504H124.016V28.2H125.328V23.432H115.728V24.504ZM124.016 13.848V15.96H121.216V17.032H124.016V18.952H121.216V20.008H124.016V22.664H125.328V13.848H124.016ZM131.541 23.768C130.421 23.768 129.637 22.856 129.637 21.576C129.637 20.328 130.421 19.416 131.541 19.416C132.645 19.416 133.445 20.328 133.445 21.576C133.445 22.856 132.645 23.768 131.541 23.768ZM131.541 18.312C129.765 18.312 128.469 19.656 128.469 21.576C128.469 23.528 129.765 24.856 131.541 24.856C133.317 24.856 134.613 23.528 134.613 21.576C134.613 19.656 133.317 18.312 131.541 18.312ZM132.181 14.248H130.885V16.28H127.973V17.352H135.093V16.28H132.181V14.248ZM138.885 13.816V19.88H137.045V14.152H135.813V27.48H137.045V20.952H138.885V28.168H140.149V13.816H138.885ZM143.737 20.808C145.961 20.424 148.073 19.224 148.953 17.528C149.817 19.224 151.945 20.424 154.169 20.808L154.681 19.768C152.153 19.4 149.673 17.752 149.673 15.864V15.784H154.169V14.728H143.689V15.784H148.217V15.864C148.217 17.752 145.737 19.4 143.241 19.768L143.737 20.808ZM155.433 22.008H142.473V23.08H148.265V28.184H149.577V23.08H155.449L155.433 22.008ZM161.182 15.192H159.918V17.928C159.918 20.392 158.734 22.968 156.766 24.12L157.582 25.112C159.006 24.232 160.046 22.6 160.558 20.696C161.07 22.44 162.03 23.96 163.39 24.792L164.142 23.768C162.254 22.616 161.182 20.184 161.182 17.88V15.192ZM164.958 18.984H162.59V20.072H164.958V27.48H166.19V14.152H164.958V18.984ZM167.87 13.832V28.184H169.118V13.832H167.87ZM175.891 21.88C176.483 22.024 177.171 22.104 177.875 22.104C178.595 22.104 179.283 22.024 179.891 21.88V25.256H175.891V21.88ZM177.875 15.768C180.179 15.768 181.843 16.824 181.843 18.424C181.843 20.024 180.179 21.08 177.875 21.08C175.571 21.08 173.923 20.024 173.923 18.424C173.923 16.824 175.571 15.768 177.875 15.768ZM181.203 25.256V21.368C182.387 20.744 183.091 19.72 183.091 18.424C183.091 16.184 180.931 14.744 177.875 14.744C174.835 14.744 172.659 16.184 172.659 18.424C172.659 19.72 173.379 20.76 174.579 21.384V25.256H171.379V26.344H184.419V25.256H181.203ZM187.24 27.208C187.816 27.208 188.296 26.76 188.296 26.104C188.296 25.448 187.816 24.968 187.24 24.968C186.664 24.968 186.184 25.448 186.184 26.104C186.184 26.76 186.664 27.208 187.24 27.208Z" fill="#DBDBDB"/>
<path d="M21.4072 25.148C24.0255 25.148 26.148 23.0255 26.148 20.4072C26.148 17.789 24.0255 15.6665 21.4072 15.6665C18.789 15.6665 16.6665 17.789 16.6665 20.4072C16.6665 23.0255 18.789 25.148 21.4072 25.148Z" stroke="#39D3C6" stroke-width="1.4" stroke-linecap="round" stroke-linejoin="round"/>
<path d="M27.3331 26.3336L24.7554 23.7559" stroke="#39D3C6" stroke-width="1.4" stroke-linecap="round" stroke-linejoin="round"/>
</svg>
