<svg width="28" height="28" viewBox="0 0 28 28" fill="none" xmlns="http://www.w3.org/2000/svg">
<path d="M24.6167 13.1833H11.4333C10.9667 11.4333 9.21667 10.3833 7.46667 10.85C6.3 11.2 5.36667 12.0166 5.13333 13.1833H3.38333C2.91667 13.1833 2.56667 13.5333 2.56667 14C2.56667 14.4666 2.91667 14.8166 3.38333 14.8166H5.13333C5.6 16.5666 7.35 17.6166 9.1 17.15C10.2667 16.8 11.2 15.9833 11.4333 14.8166H24.5C24.9667 14.8166 25.3167 14.4666 25.3167 14C25.3167 13.5333 24.9667 13.1833 24.6167 13.1833ZM8.28333 15.6333C7.35 15.6333 6.65 14.9333 6.65 14C6.65 13.0666 7.35 12.3666 8.28333 12.3666C9.21666 12.3666 9.91667 13.0666 9.91667 14C9.91667 14.9333 9.21666 15.6333 8.28333 15.6333Z" fill="#191919" stroke="#191919" stroke-width="0.4" stroke-miterlimit="10"/>
<path d="M24.6167 5.01665H22.05C21.5833 3.26665 19.8333 2.21665 18.0833 2.68332C16.9167 3.03332 15.9833 3.84998 15.75 5.01665H3.38333C3.03333 5.01665 2.56667 5.48332 2.56667 5.83332C2.56667 6.29998 2.91667 6.64998 3.38333 6.64998H15.6333C16.1 8.39998 17.85 9.44998 19.6 8.98332C20.7667 8.63332 21.7 7.81665 21.9333 6.64998H24.5C24.9667 6.64998 25.3167 6.29998 25.3167 5.83332C25.3167 5.36665 24.9667 5.01665 24.6167 5.01665ZM18.9 7.46665C17.9667 7.46665 17.2667 6.76665 17.2667 5.83332C17.2667 4.89998 17.9667 4.19998 18.9 4.19998C19.8333 4.19998 20.5333 4.89998 20.5333 5.83332C20.5333 6.76665 19.7167 7.46665 18.9 7.46665Z" fill="#191919" stroke="#191919" stroke-width="0.4" stroke-miterlimit="10"/>
<path d="M24.6167 21.35H20.4167C19.95 19.6 18.2 18.55 16.45 19.0167C15.2833 19.3667 14.35 20.1833 14.1167 21.35H3.38333C2.91667 21.35 2.56667 21.7 2.56667 22.1667C2.56667 22.6333 2.91667 22.9833 3.38333 22.9833H14.1167C14.5833 24.7333 16.3333 25.7833 18.0833 25.3167C19.25 24.9667 20.1833 24.15 20.4167 22.9833H24.6167C25.0833 22.9833 25.4333 22.6333 25.4333 22.1667C25.4333 21.7 24.9667 21.35 24.6167 21.35ZM17.2667 23.8C16.3333 23.8 15.6333 23.1 15.6333 22.1667C15.6333 21.2333 16.3333 20.5333 17.2667 20.5333C18.2 20.5333 18.9 21.2333 18.9 22.1667C18.9 23.1 18.2 23.8 17.2667 23.8Z" fill="#191919" stroke="#191919" stroke-width="0.4" stroke-miterlimit="10"/>
</svg>
